<?xml version="1.0" encoding="UTF-8" standalone="no"?>
<svg
        version="1.1"
        id="svg2"
        width="348.38666"
        height="150.42667"
        viewBox="0 0 348.38666 150.42667"
        xmlns="http://www.w3.org/2000/svg">
    <defs
            id="defs6"/>
    <g
            id="g8"
            transform="matrix(1.3333333,0,0,-1.3333333,0,150.42667)">
        <g
                id="g10"
                transform="scale(0.1)">
            <path
                    d="M 646.836,1.73828 C 547.219,19.7305 577.234,222.547 738.027,606.547 800.43,754.184 885.637,1008.58 792.012,1066.18 597.605,1186.2 199.211,948.578 100.789,680.961 9.58984,430.16 134.414,307.758 270.012,307.758 c 134.402,0 277.207,145.195 277.207,277.187 0,64.825 -28.813,120 -109.211,96.016 -35.996,-10.801 -28.797,6.016 -5.996,16.816 102.004,47.989 168,-19.199 168,-110.429 0,-152.403 -199.199,-310.801 -349.199,-310.801 -165.6177,0 -325.2193,187.207 -213.6255,442.832 C 166.785,1015.77 574.813,1197 787.234,1103.38 c 175.2,-76.81 122.395,-321.599 30,-511.228 C 740.43,436.156 682.832,247.738 663.633,138.543 c -46.817,-271.215 290.422,86.402 331.203,134.391 128.414,150.019 235.214,344.414 211.214,490.839 -10.8,62.403 -30,56.407 -57.6,61.192 -41.99,8.418 -43.22,44.414 4.78,32.402 58.82,-15.586 164.43,-98.398 96.02,-276.015 C 1134.05,277.758 801.633,-25.8711 646.836,1.73828"
                    style="fill:#66c657;fill-opacity:1;fill-rule:nonzero;stroke:none"
                    id="path12"/>
            <path
                    d="m 1290.04,140.941 c 18.03,-2.398 40.8,10.801 54,22.793 39.61,39.61 79.22,114.004 112.82,181.211 9.6,21.621 26.4,13.203 15.6,-10.8 -31.23,-67.207 -99.63,-219.606 -188.42,-219.606 -90,0 -90,93.609 -64.79,155.992 l 76.79,195.625 c 9.6,22.813 -7.19,44.395 -12,50.41 l 66.02,1.192 c 38.4,0 38.4,-13.203 25.19,-41.992 l -96.01,-224.43 c 0,0 -11.99,-26.391 -14.4,-34.789 -10.8,-39.609 -8.39,-73.203 25.2,-75.606"
                    style="fill:#66c657;fill-opacity:1;fill-rule:nonzero;stroke:none"
                    id="path14"/>
            <path
                    d="m 1678.87,109.75 c -42.01,0 -99.63,28.793 -63.6,140.391 9.59,31.211 32.39,71.992 65.98,125.996 28.81,46.816 7.23,79.218 -85.2,-7.188 -40.8,-37.207 -99.59,-104.414 -166.81,-237.597 -9.59,-16.813 -20.39,-18 -45.59,-18 -18.01,-1.223 -28.79,0 -40.8,-7.211 57.6,114 106.8,228.004 165.61,336.031 31.19,57.598 46.79,77.988 85.21,75.586 15.61,-1.192 33.62,-8.399 50.37,-4.805 -35.97,-19.199 -101.99,-139.219 -145.17,-225.605 23.98,30 62.38,75.586 99.61,108.007 57.59,51.606 181.19,127.208 221.99,112.817 0,0 -128.42,-225.625 -144.01,-309.629 -9.58,-49.203 3.6,-60 19.22,-60 62.39,0 139.18,157.207 164.38,207.594 9.61,21.601 28.81,13.203 16.82,-10.801 -36,-73.203 -105.63,-225.586 -198.01,-225.586"
                    style="fill:#66c657;fill-opacity:1;fill-rule:nonzero;stroke:none"
                    id="path16"/>
            <path
                    d="m 1958.48,109.75 c -189.63,0 -127.21,216 -40.8,332.422 44.41,60 103.2,94.789 160.8,94.789 60,0 88.81,-33.598 82.79,-82.793 -4.81,-39.633 -53.98,-90 -80.39,-63.598 13.2,15.586 31.21,39.59 37.19,61.172 10.82,42.012 -1.19,58.828 -23.99,58.828 -43.22,0 -94.8,-55.215 -128.4,-103.203 -21.6,-31.23 -66.01,-114.023 -66.01,-183.633 0,-47.984 19.18,-92.382 70.82,-92.382 104.39,0 161.99,116.386 210,211.195 10.82,21.621 27.62,15.601 16.8,-8.402 C 2138.48,209.34 2090.49,109.75 1958.48,109.75"
                    style="fill:#66c657;fill-opacity:1;fill-rule:nonzero;stroke:none"
                    id="path18"/>
            <path
                    d="m 2427.68,112.129 c -39.59,-2.379 -95.98,28.812 -60,154.809 -19.18,-31.188 -51.61,-79.2 -86.39,-112.793 -138.01,-132.0161 -229.22,77.988 -48.01,295.214 72.01,85.196 210,129.61 278.42,55.196 16.8,-17.989 7.21,-38.399 -13.2,-34.785 -13.21,44.398 -57.62,53.984 -102.02,30 -54,-30 -116.38,-100.821 -159.59,-171.598 -9.6,-16.836 -42.01,-75.625 -49.21,-121.234 -12,-83.997 53.98,-74.391 110.41,-7.184 42.01,50.387 75.6,109.195 106.79,168.004 26.41,50.414 43.21,79.203 81.6,76.797 15.61,-1.192 33.62,-8.399 50.41,-4.801 -25.19,-25.219 -96.01,-151.211 -111.6,-224.418 -9.61,-49.199 -3.59,-71.992 12,-71.992 50.42,-2.403 129.6,150 154.8,201.601 10.82,21.621 28.79,14.395 16.82,-9.609 -36,-73.203 -109.22,-217.188 -181.23,-223.207"
                    style="fill:#66c657;fill-opacity:1;fill-rule:nonzero;stroke:none"
                    id="path20"/>
            <path
                    d="m 1549.04,739.555 c 6.29,-7.989 9.46,-18.106 9.46,-30.313 0,-16.347 -6.16,-28.945 -18.48,-37.715 -12.31,-8.828 -30.22,-13.203 -53.75,-13.203 h -89.98 v 188.598 h 84.59 c 21.56,0 38.22,-4.32 50,-12.934 11.76,-8.633 17.62,-20.586 17.62,-35.84 0,-9.882 -2.27,-18.394 -6.84,-25.601 -4.59,-7.168 -10.74,-12.66 -18.48,-16.43 10.94,-3.047 19.57,-8.594 25.86,-16.562 m -125.82,85.531 v -60.332 h 55.24 c 13.83,0 24.49,2.555 31.95,7.672 7.42,5.097 11.15,12.597 11.15,22.48 0,9.887 -3.73,17.387 -11.15,22.5 -7.46,5.117 -18.12,7.68 -31.95,7.68 z m 96.47,-137.406 c 7.71,5.019 11.58,12.929 11.58,23.73 0,20.996 -15.35,31.524 -46.06,31.524 h -61.99 v -62.793 h 61.99 c 15.26,0 26.76,2.519 34.48,7.539"
                    style="fill:#1e4941;fill-opacity:1;fill-rule:nonzero;stroke:none"
                    id="path22"/>
            <path
                    d="m 1600.23,846.922 h 26.94 v -165.16 h 102.13 v -23.438 h -129.07 v 188.598"
                    style="fill:#1e4941;fill-opacity:1;fill-rule:nonzero;stroke:none"
                    id="path24"/>
            <path
                    d="m 1776.46,677.719 c -14.02,14.355 -21.03,35.019 -21.03,61.953 v 107.25 h 26.93 V 740.766 c 0,-40.43 17.7,-60.625 53.09,-60.625 17.23,0 30.45,4.984 39.61,14.961 9.16,9.961 13.73,25.175 13.73,45.664 v 106.156 h 26.11 v -107.25 c 0,-27.109 -6.97,-47.813 -20.97,-62.086 -14.03,-14.281 -33.62,-21.43 -58.75,-21.43 -25.16,0 -44.73,7.207 -58.72,21.563"
                    style="fill:#1e4941;fill-opacity:1;fill-rule:nonzero;stroke:none"
                    id="path26"/>
            <path
                    d="m 2145.02,658.324 -0.27,137.403 -68.17,-114.512 h -12.38 l -68.16,113.711 V 658.324 h -25.9 v 188.598 h 22.13 l 78.65,-132.563 77.62,132.563 h 22.07 l 0.27,-188.598 h -25.86"
                    style="fill:#1e4941;fill-opacity:1;fill-rule:nonzero;stroke:none"
                    id="path28"/>
            <path
                    d="m 2364.32,681.762 v -23.457 h -136.88 v 188.617 h 133.13 V 823.48 h -106.18 v -57.929 h 94.57 V 742.66 h -94.57 v -60.898 h 109.93"
                    style="fill:#1e4941;fill-opacity:1;fill-rule:nonzero;stroke:none"
                    id="path30"/>
            <path
                    d="M 2570.18,846.922 V 658.324 h -22.11 L 2434.9,798.949 V 658.324 h -26.91 v 188.598 h 22.07 l 113.16,-140.649 v 140.649 h 26.96"
                    style="fill:#1e4941;fill-opacity:1;fill-rule:nonzero;stroke:none"
                    id="path32"/>
        </g>
    </g>
</svg>
